# xmcd
#
# Track frame offsets: 
#        150
#        14595
#        28740
#        43815
#        60182
#        77270
#        91450
#        110162
#        129602
#        145587
#        160210
#        177137
#        192475
#
# Disc length: 2739 seconds
#
# Revision: 1
# Processed by: cddbd v1.5PL3 Copyright (c) Steve Scherf et al.
# Submitted via: ExactAudioCopy v0.95a3
#
DISCID=a90ab10d
DTITLE=Tony Stampley - Rebelution
DYEAR=2002
DGENRE=Country
TTITLE0=American Offline
TTITLE1=Another Cold One
TTITLE2=Dreamin' Again
TTITLE3=Dirt Road Rock 'n' Roll
TTITLE4=I Hate To See You Go (But I Love To Watch You Walk Away)
TTITLE5=One Bad Habit
TTITLE6=Doctor Jesus
TTITLE7=He Never Said He Loved Me
TTITLE8=You Won't Mind The Rain
TTITLE9=One Shot
TTITLE10=I Know What You've Got Up Your Sleeve
TTITLE11=Bad Girl (Looking For A Good Time)
TTITLE12=Waste Of Good Whiskey
EXTD=
EXTT0=
EXTT1=
EXTT2=
EXTT3=
EXTT4=
EXTT5=
EXTT6=
EXTT7=
EXTT8=
EXTT9=
EXTT10=
EXTT11=
EXTT12=
PLAYORDER=
